<?xml version="1.0" encoding="UTF-8" standalone="no"?>
<!-- Generator: Adobe Illustrator 19.0.0, SVG Export Plug-In . SVG Version: 6.00 Build 0)  -->

<svg
   version="1.1"
   id="Layer_1"
   x="0px"
   y="0px"
   viewBox="0 0 512 512"
   style="enable-background:new 0 0 512 512;"
   xml:space="preserve"
   sodipodi:docname="thumbs-up-svgrepo-com(1)3.svg"
   inkscape:version="1.2 (dc2aedaf03, 2022-05-15)"
   xmlns:inkscape="http://www.inkscape.org/namespaces/inkscape"
   xmlns:sodipodi="http://sodipodi.sourceforge.net/DTD/sodipodi-0.dtd"
   xmlns="http://www.w3.org/2000/svg"
   xmlns:svg="http://www.w3.org/2000/svg"><defs
   id="defs49" /><sodipodi:namedview
   id="namedview47"
   pagecolor="#ffffff"
   bordercolor="#666666"
   borderopacity="1.0"
   inkscape:showpageshadow="2"
   inkscape:pageopacity="0.0"
   inkscape:pagecheckerboard="0"
   inkscape:deskcolor="#d1d1d1"
   showgrid="false"
   inkscape:zoom="0.4609375"
   inkscape:cx="256"
   inkscape:cy="256"
   inkscape:window-width="1920"
   inkscape:window-height="1131"
   inkscape:window-x="0"
   inkscape:window-y="32"
   inkscape:window-maximized="1"
   inkscape:current-layer="Layer_1" />
<g
   id="g14"
   transform="rotate(180,256,256.0005)">
	<g
   id="g12">
		<g
   id="g10">
			<path
   d="M 495.736,290.773 C 509.397,282.317 512,269.397 512,260.796 c 0,-22.4 -18.253,-47.462 -42.667,-47.462 H 349.918 c -4.284,-0.051 -25.651,-1.51 -25.651,-25.6 0,-4.71 -3.814,-8.533 -8.533,-8.533 -4.719,0 -8.533,3.823 -8.533,8.533 0,33.749 27.913,42.667 42.667,42.667 h 119.467 c 14.182,0 25.6,16.631 25.6,30.396 0,4.437 0,17.946 -26.53,20.855 -4.506,0.495 -7.834,4.42 -7.586,8.951 0.239,4.523 3.985,8.064 8.516,8.064 14.114,0 25.6,11.486 25.6,25.6 0,14.114 -11.486,25.6 -25.6,25.6 h -17.067 c -4.719,0 -8.533,3.823 -8.533,8.533 0,4.71 3.814,8.533 8.533,8.533 14.114,0 25.6,11.486 25.6,25.6 0,14.114 -11.486,25.6 -25.6,25.6 h -25.6 c -4.719,0 -8.533,3.823 -8.533,8.533 0,4.71 3.814,8.533 8.533,8.533 8.934,0 17.067,8.132 17.067,17.067 0,8.61 -8.448,17.067 -17.067,17.067 h -128 c -35.627,0 -48.444,-7.074 -63.292,-15.258 -12.553,-6.921 -26.786,-14.763 -54.963,-18.79 -4.668,-0.674 -8.994,2.577 -9.66,7.236 -0.666,4.668 2.569,8.994 7.236,9.66 25.105,3.584 37.325,10.325 49.152,16.845 15.497,8.542 31.505,17.374 71.526,17.374 h 128 c 17.869,0 34.133,-16.273 34.133,-34.133 0,-6.229 -1.775,-12.134 -4.83,-17.229 21.794,-1.877 38.963,-20.224 38.963,-42.505 0,-10.829 -4.062,-20.736 -10.735,-28.271 16.222,-6.05 27.802,-21.691 27.802,-39.995 0,-13.568 -6.366,-25.677 -16.264,-33.494 z"
   id="path2" />
			<path
   d="m 76.8,443.733 c 9.412,0 17.067,-7.654 17.067,-17.067 0,-9.413 -7.655,-17.066 -17.067,-17.066 -9.412,0 -17.067,7.654 -17.067,17.067 0,9.413 7.655,17.066 17.067,17.066 z"
   id="path4" />
			<path
   d="m 179.2,247.467 c 25.353,0 57.429,-28.297 74.3,-45.167 36.634,-36.634 36.634,-82.167 36.634,-151.1 0,-5.342 3.191,-8.533 8.533,-8.533 29.508,0 42.667,13.158 42.667,42.667 v 102.4 c 0,4.71 3.814,8.533 8.533,8.533 4.719,0 8.533,-3.823 8.533,-8.533 v -102.4 c 0,-39.083 -20.659,-59.733 -59.733,-59.733 -14.831,0 -25.6,10.769 -25.6,25.6 0,66.978 0,107.401 -31.633,139.034 -24.773,24.771 -48.623,40.165 -62.234,40.165 -4.719,0 -8.533,3.823 -8.533,8.533 0,4.71 3.814,8.534 8.533,8.534 z"
   id="path6" />
			<path
   d="M 145.067,213.333 H 8.533 C 3.814,213.333 0,217.156 0,221.866 v 256 c 0,4.71 3.814,8.533 8.533,8.533 h 136.533 c 4.719,0 8.533,-3.823 8.533,-8.533 v -256 c 0.001,-4.71 -3.813,-8.533 -8.532,-8.533 z m -8.534,256 H 17.067 V 230.4 h 119.467 v 238.933 z"
   id="path8" />
		</g>
	</g>
</g>
<g
   id="g16">
</g>
<g
   id="g18">
</g>
<g
   id="g20">
</g>
<g
   id="g22">
</g>
<g
   id="g24">
</g>
<g
   id="g26">
</g>
<g
   id="g28">
</g>
<g
   id="g30">
</g>
<g
   id="g32">
</g>
<g
   id="g34">
</g>
<g
   id="g36">
</g>
<g
   id="g38">
</g>
<g
   id="g40">
</g>
<g
   id="g42">
</g>
<g
   id="g44">
</g>
<path
   style="fill:#ff0000;stroke-width:2.16949"
   d="m 361.65424,294.61695 c -1.96675,-1.96675 -2.60339,-34.29174 -2.60339,-132.18402 0,-114.907916 0.38603,-129.966661 3.4092,-132.989831 2.95494,-2.954943 12.51337,-3.409201 71.73584,-3.409201 42.95047,0 69.88516,0.834088 72.52301,2.245823 4.07755,2.182238 4.19635,5.94744 4.19635,132.989829 0,98.79714 -0.63613,131.38015 -2.60339,133.3474 -3.72624,3.72625 -142.93138,3.72625 -146.65762,0 z M 495.72881,161.62712 V 41.220339 H 434.98305 374.23729 V 161.62712 282.0339 h 60.74576 60.74576 z"
   id="path278" /><path
   style="fill:#ff0000;stroke-width:2.16949"
   d="m 192.61106,330.51828 c -1.45375,-0.58925 -3.29073,-4.66133 -4.08217,-9.04906 -1.94398,-10.77729 -4.30468,-14.87893 -11.14699,-19.36753 -5.11986,-3.35865 -13.97263,-3.92174 -76.74444,-4.88135 l -70.95697,-1.08475 -8.331769,-6.61725 C 11.587453,281.76573 1.0847458,262.57829 1.0847458,252.49796 c 0,-9.46076 3.4640019,-18.07084 10.0470192,-24.97275 l 5.431998,-5.69514 -7.1971356,-10.21864 c -6.3125693,-8.96271 -7.1926357,-11.88869 -7.1605205,-23.80676 0.029987,-11.12862 1.108206,-15.20742 5.9568475,-22.53421 3.2561276,-4.92034 9.0972776,-10.56186 12.9803326,-12.53672 3.883056,-1.97485 7.390137,-3.87787 7.793512,-4.22893 0.403376,-0.35107 -1.466337,-3.61362 -4.154919,-7.25012 -7.094684,-9.59607 -8.159544,-27.21923 -2.3346,-38.63707 C 28.062091,91.611683 37.777514,83.321348 49.001318,79.958615 55.670636,77.960439 57.315241,76.57027 56.127746,73.93472 55.278681,72.050284 54.173373,66.482063 53.671506,61.560893 52.531048,50.377884 56.997302,41.302256 67.629859,33.196894 l 7.973404,-6.07825 h 82.605147 c 93.16176,0 92.28405,-0.1195 126.93192,17.281702 17.69888,8.888907 23.94862,11.158705 45.16475,16.403019 9.87555,2.441086 12.28104,7.718417 5.9233,12.994879 -5.05194,4.192731 -27.94311,-2.285928 -57.44872,-16.259142 C 262.80044,49.971692 248.76054,44.920072 239.72881,43.488423 221.92913,40.666938 85.712952,40.496036 78.374836,43.285982 68.052063,47.210693 64.292155,63.525634 71.798843,71.820431 c 2.055714,2.27154 7.487713,5.139855 12.071105,6.374036 5.661648,1.524521 8.333442,3.469166 8.333442,6.065425 0,7.115177 -4.71188,9.028244 -22.236551,9.028244 -10.978814,0 -19.29101,1.169332 -23.393785,3.29096 -20.610026,10.657864 -15.129049,44.816794 7.789546,48.546564 8.768512,1.42699 13.291995,6.24786 11.135503,11.86759 -1.064079,2.77295 -4.39063,3.54912 -15.210878,3.54912 -22.574049,0 -35.11432,11.30633 -33.269027,29.99541 1.195304,12.10601 9.676219,21.3084 21.840137,23.69809 7.481759,1.46984 8.976808,2.65591 9.549653,7.57604 0.566328,4.86415 -0.334824,6.05854 -5.423729,7.18862 -14.03845,3.1175 -20.374265,5.89806 -23.452108,10.29229 -6.945404,9.91596 -1.852052,30.13644 9.655021,38.3302 5.453073,3.88293 10.819334,4.22858 75.122358,4.83864 l 69.24979,0.65698 10.30874,6.0597 c 6.64609,3.90671 11.84907,9.07897 14.64407,14.55763 4.85426,9.51515 5.67542,21.64936 1.73194,25.59284 -2.76728,2.76728 -3.47016,2.87681 -7.63301,1.18947 z"
   id="path280" /><path
   style="fill:#000000;stroke-width:2.16949"
   d="m 197.04711,483.70033 c -13.0101,-2.57248 -20.89823,-7.21866 -29.68618,-17.48539 -11.36778,-13.2807 -12.60086,-22.50555 -11.8281,-88.48825 0.61468,-52.48509 0.99753,-57.45674 4.59424,-59.66101 3.14096,-1.92497 4.54749,-1.56458 7.05084,1.8066 2.54551,3.42796 3.1278,15.33215 3.13055,64 0.003,52.59202 0.45996,60.69752 3.79661,67.33871 5.14515,10.24079 15.74023,16.81775 29.95302,18.59352 16.99928,2.12392 18.30728,0.43468 18.34913,-23.69727 0.0489,-28.18 3.64896,-67.54724 7.53051,-82.34652 7.52411,-28.68739 22.20257,-49.09267 52.88055,-73.51197 18.07534,-14.38775 28.52708,-20.24028 41.25203,-23.09938 18.03545,-4.0523 22.00398,9.3994 4.11905,13.96189 -19.40308,4.94977 -50.63996,28.12575 -66.85529,49.6028 -16.72203,22.14817 -23.76852,55.49776 -23.77293,112.51232 -0.002,27.17588 -2.75825,34.88495 -14.17792,39.6564 -8.07824,3.37529 -12.67838,3.51811 -26.33611,0.81755 z"
   id="path282" /><path
   style="fill:#ff0000;stroke-width:2.16949"
   d="m 384,295.17305 -21.69492,-1.20695 -1.34223,-58.57627 c -2.03103,-88.6363 0.17937,-202.251337 3.99647,-205.419253 4.27391,-3.547031 139.3506,-3.264729 141.55115,0.295834 2.37777,3.847321 3.93488,130.595719 2.46664,200.784439 l -1.31609,62.91525 -23.86441,1.35112 C 455.57973,296.91474 414.23293,296.85502 384,295.17295 Z M 495.72881,161.62712 V 41.220339 H 434.98305 374.23729 V 161.62712 282.0339 h 60.74576 60.74576 z"
   id="path353" /><path
   style="fill:#ff0000;stroke-width:2.16949"
   d="m 197.04711,483.70033 c -13.0101,-2.57248 -20.89823,-7.21866 -29.68618,-17.48539 -11.36778,-13.2807 -12.60086,-22.50555 -11.8281,-88.48825 0.60173,-51.37933 1.05413,-57.49817 4.40746,-59.61225 8.39436,-5.29216 9.2265,0.0494 10.36479,66.53118 1.06178,62.01252 1.19176,63.50441 6.13714,70.43796 6.33649,8.88391 13.96974,12.87869 28.22107,14.76919 16.41758,2.17787 17.70576,0.37363 17.72815,-24.83028 0.025,-28.15801 3.52936,-65.81974 7.56123,-81.26177 7.57688,-29.01932 26.44623,-54.44997 57.19228,-77.07932 17.20592,-12.66371 25.16378,-16.88938 36.67861,-19.47659 10.00333,-2.2476 15.70186,0.0486 15.70186,6.32701 0,4.55372 -0.49947,4.84962 -14.10169,8.35425 -21.30506,5.48929 -60.86469,39.48333 -72.12559,61.97834 -10.04165,20.0594 -13.71822,40.65711 -15.10245,84.61017 -1.37493,43.658 -2.95254,49.4528 -14.81247,54.4082 -8.07824,3.37529 -12.67838,3.51811 -26.33611,0.81755 z"
   id="path355" /><path
   style="fill:#ff0000;stroke-width:2.16949"
   d="m 384,295.17305 -21.69492,-1.20695 -1.54542,-55.32203 c -2.28286,-81.72017 0.17513,-205.333425 4.14852,-208.631048 4.35924,-3.617848 139.38088,-3.340924 141.6252,0.290467 2.53258,4.097796 4.19908,132.643691 2.60254,200.747361 l -1.4749,62.91525 -23.86441,1.35112 C 455.57973,296.91474 414.23293,296.85502 384,295.17295 Z M 495.72881,161.62712 V 41.220339 H 434.98305 374.23729 V 161.62712 282.0339 h 60.74576 60.74576 z"
   id="path357" /><path
   style="fill:#000000;stroke-width:2.16949"
   d="M 376.40678,161.62712 V 43.389831 h 58.57627 58.57627 V 161.62712 279.86441 h -58.57627 -58.57627 z m 72.13559,-64.246881 c 5.97347,-7.194689 5.00038,-20.186225 -1.91969,-25.629557 -12.14656,-9.554482 -28.99556,-1.749894 -28.99556,13.430966 0,16.770542 20.42726,24.830762 30.91525,12.198591 z"
   id="path428" /><path
   style="fill:#000000;stroke-width:2.16949"
   d="m 384,295.33154 -21.69492,-1.36544 -1.69744,-49.8983 c -2.49947,-73.47441 -10e-4,-209.541144 3.92028,-213.536356 2.51113,-2.558183 14.95191,-3.070733 71.65253,-2.952025 48.49985,0.101539 69.34257,0.87241 71.09979,2.629635 3.06677,3.066771 3.22643,259.613146 0.16347,262.666616 -2.45926,2.45164 -94.43668,4.28149 -123.4437,2.45587 z M 495.72881,161.62712 V 41.220339 H 434.98305 374.23729 V 161.62712 282.0339 h 60.74576 60.74576 z"
   id="path430" /><path
   style="fill:#ff0000;stroke-width:2.16949"
   d="m 191.1518,481.11505 c -11.48965,-3.03949 -28.37389,-19.64477 -31.46544,-30.94556 -2.50554,-9.15871 -3.45705,-121.63163 -1.08137,-127.82256 0.72427,-1.88742 2.617,-3.43168 4.20605,-3.43168 4.05193,0 4.98094,9.90557 7.01973,74.84746 1.35424,43.13674 2.51151,57.58414 4.91919,61.41136 5.35615,8.51407 16.47905,13.87386 31.25276,15.05975 12.09291,0.9707 13.87897,0.61595 14.96586,-2.97257 0.6788,-2.24114 2.23217,-21.15956 3.45195,-42.04091 2.45445,-42.01765 4.9242,-58.42617 11.18479,-74.3094 9.306,-23.60952 32.29033,-49.81139 60.33563,-68.78189 21.68172,-14.66605 41.41498,-18.84992 41.41498,-8.78086 0,3.01033 -2.92825,4.8901 -11.49889,7.38166 -14.89043,4.32876 -38.11747,20.7465 -55.20506,39.02099 -25.17282,26.92132 -30.86245,46.37427 -34.17134,116.83243 -0.71378,15.19877 -2.33332,30.60471 -3.59899,34.23542 -4.12513,11.83336 -20.57606,15.89244 -41.72985,10.29636 z"
   id="path432" /><path
   style="fill:#ff0000;stroke-width:2.16949"
   d="M 376.40678,161.62712 V 43.389831 h 58.57627 58.57627 V 161.62712 279.86441 h -58.57627 -58.57627 z m 70.0477,-60.57122 c 8.93692,-6.778849 8.48949,-26.754796 -0.70954,-31.677967 -6.79146,-3.634677 -19.07305,-2.490498 -23.77884,2.215287 -6.77463,6.77463 -6.01559,22.230663 1.37732,28.045928 6.49439,5.108492 17.36546,5.774902 23.11106,1.416752 z"
   id="path434" /></svg>
