<?xml version="1.0" encoding="UTF-8" standalone="no"?>
<!-- Created with Inkscape (http://www.inkscape.org/) -->

<svg width="225.86182mm" height="229.92714mm" viewBox="0 0 225.86182 229.92714" version="1.1" id="svg5" xmlns="http://www.w3.org/2000/svg" xmlnsSvg="http://www.w3.org/2000/svg">
   <defs id="defs2" />
   <g fill="none" fill-rule="evenodd" stroke="#3e155b" stroke-width="2.265" stroke-dasharray="18.12, 4.53, 2.265, 4.53" stroke-dashoffset="0" stroke-opacity="1" id="layer1" transform="translate(-1.462008,-1.253807)">
      <path id="pathAnim" d="m 55.81147,61.413696 c 2.246981,4.404925 -4.82917,5.20212 -7.321275,3.73463 -6.753451,-3.976807 -4.899307,-13.67811 -0.147985,-18.37718 8.499,-8.405533 22.444625,-5.189142 29.433085,3.43866 C 88.031143,62.871453 83.303777,81.554655 70.74999,90.698797 54.017766,102.8865 30.455515,96.590167 19.205094,80.086846 5.0475883,59.319101 12.938155,30.818726 33.40369,17.486045 58.190195,1.3383828 91.659079,10.836104 107.0604,35.271286 125.21032,64.067303 114.09802,102.52245 85.68851,119.9839 52.888603,140.14383 9.4358897,127.41233 -10.080006,95.025366 -32.255208,58.225238 -17.901429,9.767307 18.46517,-11.799055 c 40.797828,-24.194199 94.2664,-8.21599 117.88033,32.131821 26.21593,44.793718 8.61173,103.276924 -35.71847,128.936234" transform="matrix(1.3170002,0,0,1.3170002,30.111183,33.302845)" />
   </g>
</svg>