<?xml version="1.0" encoding="UTF-8" standalone="no"?>
<!-- Generator: Adobe Illustrator 19.0.0, SVG Export Plug-In . SVG Version: 6.00 Build 0)  -->

<svg
   version="1.1"
   id="Layer_1"
   x="0px"
   y="0px"
   viewBox="0 0 512 512"
   style="enable-background:new 0 0 512 512;"
   xml:space="preserve"
   sodipodi:docname="thumbs-up-svgrepo-com(1).svg"
   xmlns:inkscape="http://www.inkscape.org/namespaces/inkscape"
   xmlns:sodipodi="http://sodipodi.sourceforge.net/DTD/sodipodi-0.dtd"
   xmlns="http://www.w3.org/2000/svg"
   xmlns:svg="http://www.w3.org/2000/svg"><defs
   id="defs49" /><sodipodi:namedview
   id="namedview47"
   pagecolor="#ffffff"
   bordercolor="#666666"
   borderopacity="1.0"
   inkscape:showpageshadow="2"
   inkscape:pageopacity="0.0"
   inkscape:pagecheckerboard="0"
   inkscape:deskcolor="#d1d1d1"
   showgrid="false" />
<g
   id="g14">
	<g
   id="g12">
		<g
   id="g10">
			<path
   d="M495.736,290.773C509.397,282.317,512,269.397,512,260.796c0-22.4-18.253-47.462-42.667-47.462H349.918     c-4.284-0.051-25.651-1.51-25.651-25.6c0-4.71-3.814-8.533-8.533-8.533s-8.533,3.823-8.533,8.533     c0,33.749,27.913,42.667,42.667,42.667h119.467c14.182,0,25.6,16.631,25.6,30.396c0,4.437,0,17.946-26.53,20.855     c-4.506,0.495-7.834,4.42-7.586,8.951c0.239,4.523,3.985,8.064,8.516,8.064c14.114,0,25.6,11.486,25.6,25.6     s-11.486,25.6-25.6,25.6h-17.067c-4.719,0-8.533,3.823-8.533,8.533s3.814,8.533,8.533,8.533c14.114,0,25.6,11.486,25.6,25.6     s-11.486,25.6-25.6,25.6h-25.6c-4.719,0-8.533,3.823-8.533,8.533s3.814,8.533,8.533,8.533c8.934,0,17.067,8.132,17.067,17.067     c0,8.61-8.448,17.067-17.067,17.067h-128c-35.627,0-48.444-7.074-63.292-15.258c-12.553-6.921-26.786-14.763-54.963-18.79     c-4.668-0.674-8.994,2.577-9.66,7.236c-0.666,4.668,2.569,8.994,7.236,9.66c25.105,3.584,37.325,10.325,49.152,16.845     c15.497,8.542,31.505,17.374,71.526,17.374h128c17.869,0,34.133-16.273,34.133-34.133c0-6.229-1.775-12.134-4.83-17.229     c21.794-1.877,38.963-20.224,38.963-42.505c0-10.829-4.062-20.736-10.735-28.271C500.42,358.212,512,342.571,512,324.267     C512,310.699,505.634,298.59,495.736,290.773z"
   id="path2" />
			<path
   d="M76.8,443.733c9.412,0,17.067-7.654,17.067-17.067S86.212,409.6,76.8,409.6c-9.412,0-17.067,7.654-17.067,17.067     S67.388,443.733,76.8,443.733z"
   id="path4" />
			<path
   d="M179.2,247.467c25.353,0,57.429-28.297,74.3-45.167c36.634-36.634,36.634-82.167,36.634-151.1     c0-5.342,3.191-8.533,8.533-8.533c29.508,0,42.667,13.158,42.667,42.667v102.4c0,4.71,3.814,8.533,8.533,8.533     s8.533-3.823,8.533-8.533v-102.4c0-39.083-20.659-59.733-59.733-59.733c-14.831,0-25.6,10.769-25.6,25.6     c0,66.978,0,107.401-31.633,139.034C216.661,215.006,192.811,230.4,179.2,230.4c-4.719,0-8.533,3.823-8.533,8.533     S174.481,247.467,179.2,247.467z"
   id="path6" />
			<path
   d="M145.067,213.333H8.533c-4.719,0-8.533,3.823-8.533,8.533v256c0,4.71,3.814,8.533,8.533,8.533h136.533     c4.719,0,8.533-3.823,8.533-8.533v-256C153.6,217.156,149.786,213.333,145.067,213.333z M136.533,469.333H17.067V230.4h119.467     V469.333z"
   id="path8" />
		</g>
	</g>
</g>
<g
   id="g16">
</g>
<g
   id="g18">
</g>
<g
   id="g20">
</g>
<g
   id="g22">
</g>
<g
   id="g24">
</g>
<g
   id="g26">
</g>
<g
   id="g28">
</g>
<g
   id="g30">
</g>
<g
   id="g32">
</g>
<g
   id="g34">
</g>
<g
   id="g36">
</g>
<g
   id="g38">
</g>
<g
   id="g40">
</g>
<g
   id="g42">
</g>
<g
   id="g44">
</g>
<path
   style="fill:#00ff00;stroke-width:2.16949"
   d="m 175.56884,244.2191 c -6.43495,-4.70535 -2.8521,-10.50028 8.2418,-13.33036 13.66918,-3.48704 25.46821,-10.67942 45.22477,-27.56784 18.7759,-16.05013 30.11077,-31.81563 36.49084,-50.75455 5.17022,-15.34758 8.91004,-50.50779 8.91261,-83.792731 0.001,-17.021878 0.93124,-25.227074 3.40015,-30.001416 9.64637,-18.654024 47.20321,-15.165851 65.94389,6.124682 12.31478,13.990333 13.47168,22.142137 12.68427,89.376425 -0.61468,52.48509 -0.99753,57.45674 -4.59423,59.66101 -3.14097,1.92497 -4.5475,1.56458 -7.05085,-1.8066 -2.54551,-3.42796 -3.1278,-15.33215 -3.13055,-64 -0.003,-52.592015 -0.45996,-60.697522 -3.79661,-67.338713 -5.14515,-10.240785 -15.74023,-16.817747 -29.95302,-18.593518 -16.99928,-2.12392 -18.30728,-0.434681 -18.34913,23.697273 -0.0489,28.180001 -3.64896,67.547238 -7.53051,82.346518 -5.09705,19.43368 -13.74026,35.11457 -27.83083,50.49194 -28.45672,31.0555 -67.5132,53.64052 -78.6626,45.48788 z"
   id="path358" /><path
   style="fill:#00ff00;stroke-width:2.16949"
   d="m 273.45841,483.60669 c -17.24869,-2.5823 -24.91118,-5.2268 -46.75167,-16.13509 -17.55988,-8.7703 -23.84507,-11.04287 -45.01182,-16.27496 -9.87554,-2.44109 -12.28104,-7.71842 -5.92329,-12.99489 5.05193,-4.19274 27.94309,2.28593 57.44871,16.25915 15.97922,7.5674 30.01911,12.61902 39.05085,14.05069 17.79967,2.82146 154.01587,2.99238 161.35398,0.20241 10.32276,-3.92472 14.08269,-20.23966 6.57599,-28.53445 -2.05573,-2.27155 -7.48772,-5.13985 -12.0711,-6.37403 -5.66166,-1.52451 -8.33345,-3.46915 -8.33345,-6.0654 0,-7.1152 4.71188,-9.02826 22.23655,-9.02826 10.97882,0 19.29101,-1.16933 23.39378,-3.29096 20.61004,-10.65785 15.12906,-44.81679 -7.78954,-48.54656 -8.76852,-1.42699 -13.292,-6.24786 -11.1355,-11.86759 1.03507,-2.69735 4.25865,-3.54912 13.43189,-3.54912 23.44806,0 34.71028,-8.8267 34.71028,-27.20396 0,-9.85382 -0.94796,-12.55144 -6.41643,-18.25928 -4.0738,-4.25215 -9.44906,-7.18224 -14.72286,-8.02556 -16.44045,-2.62893 -14.60881,-14.00047 2.70091,-16.7684 17.58598,-2.81212 24.33302,-17.66285 16.00141,-35.22037 -7.47971,-15.76234 -7.20141,-15.7082 -84.51664,-16.44171 l -69.24978,-0.65699 -10.30874,-6.0597 c -11.9661,-7.03393 -18.9794,-18.70633 -18.9794,-31.58787 0,-14.20133 11.78815,-14.73728 14.32825,-0.65144 1.93392,10.72439 4.30247,14.83226 11.13731,19.31596 5.11986,3.35865 13.97263,3.92174 76.74444,4.88135 l 70.95697,1.08475 8.33176,6.61726 c 9.76128,7.7526 20.26398,26.94005 20.26398,37.02036 0,9.46077 -3.464,18.07085 -10.04702,24.97276 l -5.43199,5.69514 7.19713,10.21864 c 6.28257,8.92011 7.19289,11.91883 7.16373,23.59815 -0.0401,16.02895 -5.74208,26.89323 -17.97426,34.24677 -4.41442,2.6538 -8.3768,5.08748 -8.80527,5.40818 -0.42848,0.3207 1.40997,3.65728 4.08543,7.41463 14.72059,20.67316 1.93363,53.18393 -23.97058,60.94502 -6.783,2.03223 -8.44956,3.4242 -7.26016,6.06397 0.84905,1.88442 1.95437,7.45264 2.45623,12.37383 1.14005,11.17891 -3.32385,20.25506 -13.95017,28.36399 l -7.96523,6.07825 -75.02011,0.32937 c -41.26105,0.18115 -80.83161,-0.54066 -87.93457,-1.60404 z"
   id="path360" /><path
   style="fill:#00ff00;stroke-width:2.16949"
   d="m 177.0398,243.16878 c -5.21685,-3.30328 -0.95863,-8.27173 10.29201,-12.00859 23.31402,-7.74367 61.32739,-41.06039 72.89561,-63.88918 8.54647,-16.86564 11.79566,-35.3144 14.26516,-80.996888 1.20834,-22.352625 3.11344,-43.051628 4.23357,-45.997786 4.73528,-12.454727 27.67541,-15.837085 46.85132,-6.907888 12.44884,5.796762 23.8657,18.291734 26.9974,29.546806 2.27395,8.172384 3.00437,121.045806 0.82014,126.737816 -1.94231,5.06156 -7.10938,4.1695 -8.39694,-1.44968 -0.61518,-2.68475 -1.85412,-32.40708 -2.7532,-66.04964 l -1.6347,-61.168276 -7.49699,-7.734287 c -8.12815,-8.385424 -17.73641,-11.999797 -31.95003,-12.018749 -6.75046,-0.009 -9.37804,0.960127 -10.26088,3.784511 -0.65271,2.088136 -2.19964,21.369492 -3.43762,42.847458 -2.60335,45.165853 -6.09032,64.196433 -15.13947,82.625613 -11.89221,24.21926 -44.69859,55.09692 -72.73196,68.45598 -13.8019,6.57718 -17.68648,7.3045 -22.55342,4.22278 z"
   id="path362" /><path
   style="fill:#00ff00;stroke-width:2.16949"
   d="m 4.8813559,483.62283 c -3.5493417,-2.0673 -3.7966101,-10.72447 -3.7966101,-132.92385 0,-98.77265 0.6361437,-131.34868 2.6033898,-133.31593 3.7262455,-3.72624 142.9313844,-3.72624 146.6576244,0 1.96674,1.96674 2.60339,34.29174 2.60339,132.18402 0,114.90792 -0.38603,129.96666 -3.4092,132.98983 -2.95869,2.95869 -12.49101,3.40048 -72.135593,3.34323 -42.630877,-0.0409 -70.1679694,-0.90561 -72.5230011,-2.2773 z M 137.76271,350.37288 V 229.9661 H 77.016949 16.271186 v 120.40678 120.40678 h 60.745763 60.745761 z"
   id="path364" /><path
   style="fill:#00ff00;stroke-width:2.16949"
   d="m 66.547664,437.55509 c -6.73925,-7.1736 -6.232118,-17.33663 1.155048,-23.14738 6.868817,-5.40301 14.849044,-4.45193 20.704068,2.46752 5.669961,6.70073 4.838141,15.88888 -1.919694,21.2046 -7.45979,5.86787 -14.097994,5.69317 -19.939422,-0.52474 z"
   id="path366" /><path
   style="fill:#00ff00;stroke-width:2.16949"
   d="M 18.440678,350.37288 V 232.13559 H 77.016949 135.59322 V 350.37288 468.61017 H 77.016949 18.440678 Z m 70.607089,89.04777 c 8.883091,-8.8831 7.023405,-22.93624 -3.774102,-28.51984 -13.161442,-6.80605 -25.612648,1.36797 -25.612648,16.81428 0,15.27412 18.46362,22.62868 29.38675,11.70556 z"
   id="path368" /><path
   style="fill:#00ff00;stroke-width:2.16949"
   d="M 18.440678,350.37288 V 232.13559 H 77.016949 135.59322 V 350.37288 468.61017 H 77.016949 18.440678 Z m 71.648946,88.88984 c 7.395395,-7.87204 7.028961,-19.49785 -0.827553,-26.25573 -13.024711,-11.20339 -29.601054,-3.54479 -29.601054,13.67627 0,12.16758 5.540905,18.0625 16.977759,18.0625 6.071975,0 9.682432,-1.47175 13.450848,-5.48304 z"
   id="path370" /><path
   style="fill:#000000;stroke-width:2.16949"
   d="m 67.319295,436.13968 c -5.363264,-5.92634 -4.903092,-15.23758 0.988847,-20.00858 9.626553,-7.79511 21.725756,-2.12916 21.725756,10.17398 0,12.46913 -14.606983,18.79342 -22.714603,9.8346 z"
   id="path374" /><path
   style="fill:#000000;stroke-width:2.16949"
   d="M 41.220339,483.79661 4.3389831,482.71186 2.8365748,422.58092 c -0.8263246,-33.07202 -0.8263246,-92.62456 0,-132.33898 L 4.3389831,218.0339 32.542373,216.3466 c 31.638059,-1.89279 114.002597,0.0112 116.795687,2.69988 3.03025,2.917 2.36525,257.76888 -0.68219,261.44083 -3.04562,3.66974 -48.04891,5.05596 -107.435531,3.3093 z M 137.76271,350.37288 V 229.9661 H 77.016949 16.271186 v 120.40678 120.40678 h 60.745763 60.745761 z"
   id="path376" /></svg>
